<?xml version="1.0" encoding="utf-8"?>
<!-- Svg Vector Icons : http://www.onlinewebfonts.com/icon -->
<!DOCTYPE svg PUBLIC "-//W3C//DTD SVG 1.1//EN" "http://www.w3.org/Graphics/SVG/1.1/DTD/svg11.dtd">
<svg version="1.1" xmlns="http://www.w3.org/2000/svg" xmlns:xlink="http://www.w3.org/1999/xlink" x="0px" y="0px" viewBox="0 0 256 256" enable-background="new 0 0 256 256" xml:space="preserve">
<metadata> Svg Vector Icons : http://www.onlinewebfonts.com/icon </metadata>
<g><g><path fill="#000000" d="M178.7,83c0-6.2-5-11.2-11.2-11.2H66.2C60,71.8,55,76.8,55,83s5,11.2,11.2,11.2h101.2C173.6,94.3,178.7,89.2,178.7,83z M66.2,116.7c-6.2,0-11.2,5-11.2,11.2v0.1c0,6.2,5,11.2,11.2,11.2h67.5c6.2,0,11.2-5,11.2-11.2v-0.1c0-6.2-5-11.2-11.2-11.2H66.2z M71.8,229.2H60.6c-15.5,0-28.1-12.6-28.1-28.1V54.9c0-15.5,12.6-28.1,28.1-28.1h112.4c15.5,0,28.1,12.6,28.1,28.1V83c0,6.2,5,11.2,11.2,11.2c6.2,0,11.2-5,11.2-11.2V49.3c0-24.8-20.1-45-45-45H55c-24.8,0-45,20.1-45,45v157.4c0,24.8,20.1,45,45,45h16.9c6.2,0,11.2-5,11.2-11.2C83.1,234.2,78,229.2,71.8,229.2z M236.2,126.5c-13-13.1-34.1-13.1-47.1,0l-72.8,71.9l0.1,0.1c-2.4,2-4,5.1-4,8.5v33.5c0,6.2,5,11.2,11.1,11.2l0,0h33.3c4.1,0,7.6-2.2,9.5-5.5l0,0l69.8-72.3C249.3,160.8,249.3,139.5,236.2,126.5z M220.5,158l-68.7,71.2h-17.3v-17.5l70.2-69.5c4.3-4.4,11.4-4.4,15.7,0C224.8,146.6,224.8,153.7,220.5,158z M100,161.7H66.2c-6.2,0-11.2,5-11.2,11.2s5,11.2,11.2,11.2H100c6.2,0,11.2-5,11.2-11.2C111.2,166.8,106.2,161.7,100,161.7z"/></g></g>
</svg>